# xmcd
#
# Track frame offsets: 
#        150
#        10081
#        19290
#        29095
#        40720
#        49717
#        60596
#        71557
#        80529
#        90767
#        102678
#        114456
#        127973
#        141009
#        155300
#        167219
#        184042
#        196512
#        209450
#        219220
#        230833
#        245515
#        258035
#        270314
#
# Disc length: 3811 seconds
#
# Revision: 0
# Processed by: cddbd v1.5.2PL0 Copyright (c) Steve Scherf et al.
# Submitted via: ExactAudioCopy v1.0b3
#
DISCID=3f0ee118
DTITLE=Boots Randolph - Golden Music Collection
DYEAR=1900
DGENRE=Instrumental
TTITLE0=Percolator 
TTITLE1=Yakety Sax
TTITLE2=Difficult
TTITLE3=Blue Guitar
TTITLE4=Sweet Talk
TTITLE5=Red Light
TTITLE6=Temptation
TTITLE7=Sleep Walk
TTITLE8=Little Big Horn
TTITLE9=Sleep
TTITLE10=So Rare
TTITLE11=Teach Me Tonight
TTITLE12=Sentimental Journey
TTITLE13=The Shadow Of Your Smile
TTITLE14=I Left My Heart In San Francisco
TTITLE15=Stardust
TTITLE16=Lazy River
TTITLE17=Marie
TTITLE18=So Rare
TTITLE19=Laura
TTITLE20=Smoke Gets In Your Eyes
TTITLE21=Gentle On My Mind
TTITLE22=Big Daddy
TTITLE23=Danny Boy
EXTD=
EXTT0=
EXTT1=
EXTT2=
EXTT3=
EXTT4=
EXTT5=
EXTT6=
EXTT7=
EXTT8=
EXTT9=
EXTT10=
EXTT11=
EXTT12=
EXTT13=
EXTT14=
EXTT15=
EXTT16=
EXTT17=
EXTT18=
EXTT19=
EXTT20=
EXTT21=
EXTT22=
EXTT23=
PLAYORDER=
